<svg width="60" height="60" viewBox="0 0 60 60" fill="none" xmlns="http://www.w3.org/2000/svg">
<path d="M0 8C0 3.58172 3.58172 0 8 0H52C56.4183 0 60 3.58172 60 8V52C60 56.4183 56.4183 60 52 60H8C3.58172 60 0 56.4183 0 52V8Z" fill="#E4E6FF"/>
<g clip-path="url(#clip0_10257_11526)">
<path opacity="0.2" d="M45 32.25V39C45 43.5 43.5 46.5 43.5 46.5H18L12.5025 37.125C12.0131 36.2642 11.884 35.2447 12.1435 34.289C12.4029 33.3333 13.0298 32.5191 13.8874 32.024C14.745 31.5288 15.7636 31.393 16.721 31.6461C17.6783 31.8992 18.4967 32.5207 18.9975 33.375L22.5 39V18.75C22.5 17.7554 22.8951 16.8016 23.5984 16.0983C24.3016 15.3951 25.2555 15 26.25 15C27.2446 15 28.1984 15.3951 28.9017 16.0983C29.6049 16.8016 30 17.7554 30 18.75V29.25C30 28.2554 30.3951 27.3016 31.0984 26.5983C31.8016 25.8951 32.7555 25.5 33.75 25.5C34.7446 25.5 35.6984 25.8951 36.4017 26.5983C37.1049 27.3016 37.5 28.2554 37.5 29.25V32.25C37.5 31.2554 37.8951 30.3016 38.5984 29.5983C39.3016 28.8951 40.2555 28.5 41.25 28.5C42.2446 28.5 43.1984 28.8951 43.9017 29.5983C44.6049 30.3016 45 31.2554 45 32.25Z" fill="#5A14ED"/>
<path d="M46.5 32.2499V38.9999C46.5 43.7981 44.9082 47.0343 44.8407 47.1712C44.7161 47.4201 44.5247 47.6295 44.288 47.7758C44.0512 47.9222 43.7784 47.9998 43.5 47.9999C43.2675 48.0001 43.0382 47.9455 42.8307 47.8406C42.4749 47.6627 42.2044 47.3509 42.0785 46.9736C41.9526 46.5963 41.9817 46.1845 42.1594 45.8287C42.1707 45.8062 43.5019 43.0518 43.5019 38.9999V32.2499C43.5019 31.6532 43.2649 31.0809 42.8429 30.6589C42.4209 30.237 41.8486 29.9999 41.2519 29.9999C40.6552 29.9999 40.0829 30.237 39.6609 30.6589C39.239 31.0809 39.0019 31.6532 39.0019 32.2499V32.9999C39.0019 33.3978 38.8439 33.7793 38.5626 34.0606C38.2813 34.3419 37.8997 34.4999 37.5019 34.4999C37.1041 34.4999 36.7226 34.3419 36.4412 34.0606C36.1599 33.7793 36.0019 33.3978 36.0019 32.9999V29.2499C36.0019 28.6532 35.7649 28.0809 35.3429 27.6589C34.9209 27.237 34.3486 26.9999 33.7519 26.9999C33.1552 26.9999 32.5829 27.237 32.1609 27.6589C31.739 28.0809 31.5019 28.6532 31.5019 29.2499V31.4999C31.5019 31.8978 31.3439 32.2793 31.0626 32.5606C30.7813 32.8419 30.3997 32.9999 30.0019 32.9999C29.6041 32.9999 29.2226 32.8419 28.9412 32.5606C28.6599 32.2793 28.5019 31.8978 28.5019 31.4999V18.7499C28.5019 18.1532 28.2649 17.5809 27.8429 17.1589C27.4209 16.737 26.8486 16.4999 26.2519 16.4999C25.6552 16.4999 25.0829 16.737 24.6609 17.1589C24.239 17.5809 24.0019 18.1532 24.0019 18.7499V38.9999C24.0019 39.3258 23.8957 39.6428 23.6995 39.903C23.5033 40.1632 23.2277 40.3524 22.9144 40.442C22.6011 40.5316 22.2671 40.5168 21.9629 40.3997C21.6588 40.2826 21.4011 40.0696 21.2288 39.7931L17.7263 34.1681L17.7 34.1249C17.5523 33.8689 17.3556 33.6444 17.1211 33.4643C16.8866 33.2843 16.6189 33.1522 16.3334 33.0756C16.0479 32.999 15.75 32.9793 15.4569 33.0178C15.1638 33.0563 14.8811 33.1522 14.625 33.2999C14.369 33.4477 14.1445 33.6444 13.9644 33.8789C13.7844 34.1134 13.6523 34.381 13.5757 34.6666C13.4991 34.9521 13.4795 35.2499 13.5179 35.5431C13.5564 35.8362 13.6523 36.1189 13.8 36.3749L19.2919 45.7499C19.4075 45.9204 19.4867 46.1128 19.5247 46.3152C19.5627 46.5176 19.5586 46.7256 19.5127 46.9264C19.4668 47.1271 19.38 47.3163 19.2578 47.482C19.1356 47.6478 18.9805 47.7866 18.8024 47.8898C18.6242 47.993 18.4266 48.0584 18.222 48.082C18.0175 48.1056 17.8102 48.0867 17.6132 48.0267C17.4162 47.9667 17.2337 47.8667 17.077 47.7331C16.9204 47.5995 16.7929 47.435 16.7025 47.2499L11.205 37.8749C10.5046 36.6713 10.311 35.2386 10.6669 33.8923C11.0227 32.5459 11.8989 31.396 13.1025 30.6956C14.3062 29.9951 15.7388 29.8016 17.0852 30.1574C18.4316 30.5133 19.5815 31.3894 20.2819 32.5931L21 33.7499V18.7499C21 17.3575 21.5532 16.0222 22.5377 15.0376C23.5223 14.0531 24.8576 13.4999 26.25 13.4999C27.6424 13.4999 28.9778 14.0531 29.9623 15.0376C30.9469 16.0222 31.5 17.3575 31.5 18.7499V24.5062C32.1751 24.1858 32.9108 24.0132 33.6579 24C34.405 23.9867 35.1463 24.1331 35.8323 24.4293C36.5183 24.7255 37.1332 25.1648 37.6358 25.7177C38.1384 26.2706 38.5173 26.9245 38.7469 27.6356C39.5465 27.2018 40.4452 26.9833 41.3547 27.0014C42.2642 27.0196 43.1534 27.2737 43.9351 27.739C44.7168 28.2042 45.3642 28.8646 45.8139 29.6554C46.2635 30.4462 46.5 31.3402 46.5 32.2499ZM53.5613 15.4387L47.5613 9.43868C47.2798 9.15746 46.8982 8.99958 46.5003 8.99976C46.1024 8.99993 45.7209 9.15815 45.4397 9.43961C45.1585 9.72108 45.0006 10.1027 45.0008 10.5006C45.001 10.8985 45.1592 11.28 45.4407 11.5612L48.8775 14.9999H39C38.6022 14.9999 38.2207 15.158 37.9394 15.4393C37.6581 15.7206 37.5 16.1021 37.5 16.4999C37.5 16.8978 37.6581 17.2793 37.9394 17.5606C38.2207 17.8419 38.6022 17.9999 39 17.9999H48.8794L45.4388 21.4387C45.2994 21.5779 45.1888 21.7432 45.1134 21.9252C45.0379 22.1072 44.999 22.3023 44.9989 22.4993C44.9988 22.6963 45.0376 22.8914 45.1129 23.0734C45.1882 23.2554 45.2986 23.4209 45.4378 23.5602C45.5771 23.6996 45.7424 23.8102 45.9244 23.8857C46.1064 23.9611 46.3014 24 46.4984 24.0001C46.6954 24.0002 46.8905 23.9615 47.0726 23.8862C47.2546 23.8108 47.42 23.7004 47.5594 23.5612L53.5594 17.5612C53.699 17.422 53.8098 17.2567 53.8854 17.0746C53.9611 16.8926 54.0001 16.6974 54.0003 16.5003C54.0005 16.3032 53.9618 16.108 53.8864 15.9258C53.8111 15.7436 53.7006 15.5781 53.5613 15.4387Z" fill="#5A14ED"/>
</g>
<defs>
<clipPath id="clip0_10257_11526">
<rect width="48" height="48" fill="white" transform="translate(6 6)"/>
</clipPath>
</defs>
</svg>
