<svg width="48" height="48" viewBox="0 0 48 48" fill="none" xmlns="http://www.w3.org/2000/svg">
<path d="M25.1859 46.5161L25.1639 46.5201L25.0219 46.5901L24.9819 46.5981L24.9539 46.5901L24.8119 46.5201C24.7905 46.5135 24.7745 46.5168 24.7639 46.5301L24.7559 46.5501L24.7219 47.4061L24.7319 47.4461L24.7519 47.4721L24.9599 47.6201L24.9899 47.6281L25.0139 47.6201L25.2219 47.4721L25.2459 47.4401L25.2539 47.4061L25.2199 46.5521C25.2145 46.5308 25.2032 46.5188 25.1859 46.5161ZM25.7159 46.2901L25.6899 46.2941L25.3199 46.4801L25.2999 46.5001L25.2939 46.5221L25.3299 47.3821L25.3399 47.4061L25.3559 47.4201L25.7579 47.6061C25.7832 47.6128 25.8025 47.6075 25.8159 47.5901L25.8239 47.5621L25.7559 46.3341C25.7492 46.3101 25.7359 46.2955 25.7159 46.2901ZM24.2859 46.2941C24.277 46.2888 24.2665 46.287 24.2564 46.2893C24.2464 46.2915 24.2376 46.2975 24.2319 46.3061L24.2199 46.3341L24.1519 47.5621C24.1532 47.5861 24.1645 47.6021 24.1859 47.6101L24.2159 47.6061L24.6179 47.4201L24.6379 47.4041L24.6459 47.3821L24.6799 46.5221L24.6739 46.4981L24.6539 46.4781L24.2859 46.2941Z" fill="#5A14ED"/>
<path d="M25.9999 4.00001C27.4815 3.99759 28.9116 4.5434 30.0147 5.53234C31.1179 6.52127 31.8162 7.88339 31.9751 9.3564C32.134 10.8294 31.7424 12.3091 30.8755 13.5106C30.0086 14.7121 28.7279 15.5504 27.2799 15.864L26.9379 15.928L29.8099 20.522L33.2579 19.142C33.7322 18.9506 34.2618 18.9481 34.7378 19.135C35.2139 19.322 35.6002 19.6843 35.8174 20.1473C36.0345 20.6104 36.0661 21.139 35.9055 21.6246C35.7449 22.1102 35.4044 22.5158 34.9539 22.758L34.7419 22.858L31.2959 24.236C30.4791 24.5628 29.5773 24.6112 28.7301 24.3737C27.883 24.1361 27.1378 23.6259 26.6099 22.922L26.4179 22.642L26.0919 22.122L24.8799 26.97C24.7751 27.3919 24.6021 27.7938 24.3679 28.16L24.1879 28.42L27.4939 30.876C28.2825 31.462 28.8278 32.3177 29.0259 33.28L29.0839 33.644L29.7899 40H29.9999C30.5097 40.0006 31 40.1958 31.3707 40.5457C31.7414 40.8956 31.9644 41.3739 31.9943 41.8828C32.0242 42.3917 31.8586 42.8928 31.5314 43.2837C31.2042 43.6746 30.7401 43.9258 30.2339 43.986L29.9999 44H28.1799C27.6794 44.0001 27.1938 43.8296 26.8033 43.5165C26.4128 43.2034 26.1407 42.7666 26.0319 42.278L25.9919 42.044L25.1079 34.086L18.8079 29.406C18.6958 29.3236 18.5926 29.2298 18.4999 29.126C17.9442 28.6813 17.5173 28.0963 17.2631 27.4315C17.0089 26.7667 16.9367 26.046 17.0539 25.344L17.1199 25.03L18.7079 18.676L15.5679 19.616L13.8979 24.632C13.7376 25.1173 13.3974 25.5228 12.9474 25.7652C12.4974 26.0076 11.9717 26.0685 11.4782 25.9354C10.9846 25.8023 10.5608 25.4853 10.2937 25.0495C10.0266 24.6137 9.93654 24.0922 10.0419 23.592L10.1019 23.368L11.7739 18.352C11.9597 17.7954 12.2656 17.2865 12.67 16.8614C13.0744 16.4363 13.5674 16.1053 14.1139 15.892L14.4199 15.786L21.2939 13.724C20.594 12.8398 20.1574 11.7762 20.0343 10.6553C19.9111 9.53432 20.1064 8.40135 20.5976 7.38626C21.0889 6.37118 21.8563 5.5151 22.8118 4.91617C23.7673 4.31724 24.8722 3.99972 25.9999 4.00001ZM19.1999 30.4C19.6243 30.7183 19.9048 31.1921 19.9798 31.7172C20.0549 32.2423 19.9182 32.7757 19.5999 33.2L17.1679 36.444C16.7078 37.0574 16.0303 37.4714 15.2745 37.6008C14.5187 37.7303 13.742 37.5654 13.1039 37.14L9.24394 34.566C8.84441 34.8866 8.33708 35.0417 7.82656 34.9993C7.31604 34.9569 6.84127 34.7202 6.50014 34.338C6.159 33.9558 5.97752 33.4573 5.99312 32.9453C6.00871 32.4332 6.22019 31.9467 6.58394 31.586L7.57394 30.598C7.90402 30.2673 8.33855 30.0612 8.80351 30.0149C9.26847 29.9686 9.73511 30.0849 10.1239 30.344L14.5359 33.286L16.3999 30.8C16.5575 30.5899 16.755 30.4129 16.981 30.2791C17.207 30.1452 17.4571 30.0573 17.7171 30.0201C17.9771 29.983 18.2419 29.9974 18.4963 30.0626C18.7507 30.1278 18.9898 30.2424 19.1999 30.4Z" fill="#5A14ED"/>
</svg>
