<svg width="48" height="48" viewBox="0 0 48 48" fill="none" xmlns="http://www.w3.org/2000/svg">
<path d="M40.5805 7.42497C38.7074 5.55213 36.1671 4.5 33.5183 4.5C30.8695 4.5 28.3292 5.55213 26.4561 7.42497L7.42488 26.4543C5.5913 28.3351 4.57254 30.8626 4.58932 33.4892C4.60609 36.1158 5.65703 38.63 7.51449 40.4872C9.37194 42.3444 11.8863 43.3951 14.5129 43.4115C17.1395 43.4279 19.6669 42.4088 21.5474 40.575L40.5805 21.5456C42.4499 19.6714 43.4997 17.1324 43.4997 14.4853C43.4997 11.8382 42.4499 9.29913 40.5805 7.42497ZM38.458 19.425L28.9424 28.9387L19.063 19.0612L28.5786 9.5456C29.8939 8.2607 31.6627 7.54613 33.5014 7.55687C35.3401 7.56762 37.1004 8.3028 38.4006 9.60298C39.7008 10.9032 40.436 12.6635 40.4467 14.5022C40.4575 16.3409 39.7429 18.1097 38.458 19.425ZM35.5649 15.4387C35.7043 15.578 35.815 15.7435 35.8905 15.9256C35.966 16.1077 36.0048 16.3028 36.0048 16.5C36.0048 16.6971 35.966 16.8923 35.8905 17.0744C35.815 17.2565 35.7043 17.4219 35.5649 17.5612L31.0649 22.0612C30.9255 22.2005 30.7601 22.3109 30.5781 22.3862C30.396 22.4615 30.2009 22.5002 30.0039 22.5001C29.8069 22.5001 29.6118 22.4612 29.4299 22.3857C29.2479 22.3102 29.0826 22.1996 28.9433 22.0603C28.8041 21.9209 28.6936 21.7555 28.6183 21.5734C28.543 21.3914 28.5043 21.1963 28.5044 20.9993C28.5045 20.8023 28.5434 20.6072 28.6188 20.4253C28.6943 20.2433 28.8049 20.078 28.9443 19.9387L33.4443 15.4387C33.7255 15.1576 34.1069 14.9997 34.5046 14.9997C34.9022 14.9997 35.2836 15.1576 35.5649 15.4387Z" fill="#5A14ED"/>
</svg>
