<svg width="48" height="48" viewBox="0 0 48 48" fill="none" xmlns="http://www.w3.org/2000/svg">
<path fill-rule="evenodd" clip-rule="evenodd" d="M24 3H23.948C23.8718 3.00032 23.7957 3.00499 23.72 3.014C23.5645 3.03061 23.4097 3.0533 23.256 3.082C22.7581 3.17965 22.2696 3.32017 21.796 3.502C20.592 3.954 18.926 4.804 16.8 6.4C15.22 7.584 12.646 8.28 10.204 8.648C8.83313 8.84954 7.45122 8.96709 6.066 9H4V24C4 27.312 5.356 30.28 7.2 32.794C9.046 35.304 11.46 37.47 13.8 39.226C16.7116 41.3918 19.834 43.2585 23.12 44.798L23.168 44.818L23.176 44.822L23.22 44.842C23.4743 44.9496 23.748 45.0033 24.0241 44.9999C24.3001 44.9964 24.5725 44.9359 24.824 44.822L24.832 44.818L24.878 44.798C25.1371 44.6797 25.3944 44.5577 25.65 44.432C26.166 44.18 26.898 43.812 27.77 43.332C30.0075 42.1166 32.1562 40.7446 34.2 39.226C36.54 37.47 38.954 35.306 40.8 32.794C42.644 30.28 44 27.312 44 24V9H41.934L41.7 8.994C40.3931 8.95317 39.0896 8.83697 37.796 8.646C35.354 8.28 32.78 7.588 31.2 6.4C29.074 4.804 27.408 3.954 26.202 3.502C25.7283 3.32017 25.2399 3.17965 24.742 3.082C24.5137 3.04203 24.2834 3.01532 24.052 3.002H24.024L24.012 3H24ZM22 14V22H14V26H22V34H26V26H34V22H26V14H22Z" fill="#5A14ED"/>
<mask id="mask0_10433_1604" style="mask-type:luminance" maskUnits="userSpaceOnUse" x="4" y="3" width="40" height="42">
<path fill-rule="evenodd" clip-rule="evenodd" d="M24 3H23.948C23.8718 3.00032 23.7957 3.00499 23.72 3.014C23.5645 3.03061 23.4097 3.0533 23.256 3.082C22.7581 3.17965 22.2696 3.32017 21.796 3.502C20.592 3.954 18.926 4.804 16.8 6.4C15.22 7.584 12.646 8.28 10.204 8.648C8.83313 8.84954 7.45122 8.96709 6.066 9H4V24C4 27.312 5.356 30.28 7.2 32.794C9.046 35.304 11.46 37.47 13.8 39.226C16.7116 41.3918 19.834 43.2585 23.12 44.798L23.168 44.818L23.176 44.822L23.22 44.842C23.4743 44.9496 23.748 45.0033 24.0241 44.9999C24.3001 44.9964 24.5725 44.9359 24.824 44.822L24.832 44.818L24.878 44.798C25.1371 44.6797 25.3944 44.5577 25.65 44.432C26.166 44.18 26.898 43.812 27.77 43.332C30.0075 42.1166 32.1562 40.7446 34.2 39.226C36.54 37.47 38.954 35.306 40.8 32.794C42.644 30.28 44 27.312 44 24V9H41.934L41.7 8.994C40.3931 8.95317 39.0896 8.83697 37.796 8.646C35.354 8.28 32.78 7.588 31.2 6.4C29.074 4.804 27.408 3.954 26.202 3.502C25.7283 3.32017 25.2399 3.17965 24.742 3.082C24.5137 3.04203 24.2834 3.01532 24.052 3.002H24.024L24.012 3H24ZM22 14V22H14V26H22V34H26V26H34V22H26V14H22Z" fill="#5A14ED"/>
</mask>
<g mask="url(#mask0_10433_1604)">
<path d="M23.994 3L23.99 -1H23.978L23.994 3ZM24 3V-1H23.994L24 3ZM23.988 3L23.97 -1H23.95L23.988 3ZM23.974 3L23.938 -1H23.904L23.974 3ZM23.948 3L23.876 -1H23.854L23.948 3ZM6.066 9L6.106 13H6.116L6.066 9ZM6.012 9L6.028 13H6.048L6.012 9ZM5.998 9V13H6.018L5.998 9ZM4 9V5H0V9H4ZM23.122 44.798L21.466 48.438L21.474 48.442L23.122 44.798ZM23.168 44.818L21.52 48.464L21.53 48.468L23.168 44.818ZM23.176 44.822L21.538 48.472L21.554 48.48L21.572 48.486L23.176 44.822ZM23.22 44.842L21.616 48.506L21.636 48.514L21.656 48.524L23.22 44.842ZM24.824 44.822L23.188 41.172L23.176 41.178L24.824 44.822ZM24.832 44.818L26.47 48.468L26.48 48.464L24.832 44.818ZM24.878 44.798L26.526 48.442L26.534 48.44L24.878 44.798ZM44 9H48V5H44V9ZM42 9L41.98 13H42V9ZM41.988 9L41.95 13H41.97L41.988 9ZM41.934 9L41.884 13H41.896L41.934 9ZM24.052 3.002L24.146 -0.998H24.122L24.052 3.002ZM24.024 3.002L24.094 -0.998H24.06L24.024 3.002ZM24.012 3L24.048 -1H24.028L24.012 3ZM24.006 3L24.024 -1H24.018L24.006 3ZM24.002 3L24.014 -1H24.004L24.002 3ZM22 22V26H26V22H22ZM22 14V10H18V14H22ZM14 22V18H10V22H14ZM14 26H10V30H14V26ZM22 26H26V22H22V26ZM22 34H18V38H22V34ZM26 34V38H30V34H26ZM26 26V22H22V26H26ZM34 26V30H38V26H34ZM34 22H38V18H34V22ZM26 22H22V26H26V22ZM26 14H30V10H26V14ZM24 7H24.006L23.994 -1H23.99L24 7ZM24.006 7H24.012L23.978 -1H23.97L24.006 7ZM24.012 7H24.024L23.95 -1H23.938L24.012 7ZM24.018 7H24.046L23.904 -1H23.876L24.018 7ZM24.07 6.998L24.042 7L23.854 -1L23.694 -0.992L24.07 6.998ZM24.092 6.998H24.072L23.694 -0.992L23.346 -0.968L24.092 6.998ZM23.992 7.012L24.092 6.998L23.346 -0.968C23.098 -0.945333 22.8227 -0.906 22.52 -0.85L23.992 7.012ZM23.202 7.248C23.6 7.098 23.86 7.038 23.992 7.012L22.52 -0.85C21.7951 -0.709039 21.0838 -0.505614 20.394 -0.242L23.202 7.248ZM19.2 9.6C21.074 8.196 22.408 7.546 23.202 7.248L20.394 -0.242C18.778 0.364 16.78 1.414 14.4 3.2L19.2 9.6ZM10.796 12.6C13.35 12.218 16.78 11.416 19.2 9.6L14.4 3.2C13.664 3.752 11.94 4.34 9.61 4.692L10.796 12.6ZM7.428 12.95C8.55531 12.8834 9.67909 12.7667 10.796 12.6L9.61 4.692C8.73312 4.82168 7.85092 4.91044 6.966 4.962L7.428 12.95ZM6.404 12.994C6.648 12.988 6.998 12.974 7.428 12.95L6.968 4.964C6.628 4.98267 6.37267 4.99333 6.198 4.996L6.404 12.994ZM6.116 13L6.404 12.994L6.198 4.996L6.016 5L6.116 13ZM6.05 13H6.106L6.028 5H5.972L6.05 13ZM6.016 13H6.028L5.994 5H5.98L6.016 13ZM4 13H5.998L6 5H4V13ZM8 24V9H0V24H8ZM10.424 30.426C8.894 28.34 8 26.186 8 24H0C0 28.436 1.816 32.22 3.978 35.16L10.424 30.426ZM16.2 36.026C14.04 34.406 11.954 32.508 10.424 30.426L3.98 35.16C6.14 38.1 8.884 40.534 11.402 42.422L16.2 36.026ZM22.146 39.822C20.0771 38.6982 18.0902 37.4297 16.2 36.026L11.4 42.426C13.5961 44.0606 15.9052 45.5376 18.31 46.846L22.146 39.822ZM24.104 40.838C23.4436 40.5144 22.7908 40.1756 22.146 39.822L18.31 46.842C19.246 47.354 20.03 47.752 20.594 48.026L24.104 40.838ZM24.64 41.094L24.104 40.838L20.594 48.026C20.878 48.1647 21.1027 48.272 21.268 48.348L24.64 41.094ZM24.776 41.154L24.64 41.094L21.268 48.348C21.3507 48.388 21.4173 48.4187 21.468 48.44L24.776 41.154ZM24.816 41.174L24.768 41.154L21.474 48.442L21.52 48.464L24.816 41.174ZM24.812 41.174L24.804 41.168L21.53 48.468L21.538 48.472L24.812 41.174ZM24.824 41.178L24.78 41.158L21.572 48.486L21.616 48.506L24.824 41.178ZM23.998 41C24.264 41 24.532 41.054 24.782 41.16L21.656 48.524C22.416 48.844 23.214 49.002 24.002 49.002L23.998 41ZM23.176 41.178C23.4337 41.0614 23.7152 41.0007 23.998 41L24.002 49.002C24.862 49.002 25.704 48.814 26.472 48.466L23.176 41.178ZM23.198 41.168L23.188 41.172L26.462 48.472L26.47 48.468L23.198 41.168ZM23.232 41.152L23.184 41.172L26.48 48.464L26.526 48.442L23.232 41.152ZM23.36 41.092L23.224 41.156L26.534 48.44L26.732 48.348L23.36 41.092ZM23.896 40.838C23.66 40.9527 23.4813 41.038 23.36 41.094L26.732 48.348L27.406 48.026L23.896 40.838ZM25.854 39.822C25.04 40.268 24.364 40.608 23.896 40.838L27.406 48.026C28.1763 47.6495 28.9378 47.2554 29.69 46.844L25.854 39.822ZM31.8 36.024C29.91 37.4291 27.923 38.699 25.854 39.824L29.69 46.844C32.0948 45.5356 34.4039 44.0586 36.6 42.424L31.8 36.024ZM37.576 30.424C36.046 32.508 33.96 34.404 31.8 36.024L36.6 42.424C39.118 40.536 41.864 38.102 44.022 35.162L37.576 30.424ZM40 24C40 26.188 39.106 28.342 37.576 30.426L44.022 35.162C46.182 32.22 48 28.436 48 24H40ZM40 9V24H48V9H40ZM42 13H44V5H42V13ZM41.97 13H41.98L42.02 5H42.008L41.97 13ZM41.896 13H41.95L42.026 5H41.972L41.896 13ZM41.596 12.994L41.884 13L41.984 5L41.804 4.996L41.596 12.994ZM40.572 12.95C41.002 12.974 41.352 12.988 41.596 12.994L41.804 4.996C41.5465 4.98948 41.2891 4.97881 41.032 4.964L40.572 12.95ZM37.204 12.6C38.528 12.8 39.716 12.902 40.572 12.95L41.032 4.962C40.1478 4.91038 39.2662 4.81962 38.39 4.69L37.204 12.6ZM28.8 9.6C31.222 11.416 34.65 12.218 37.204 12.6L38.39 4.69C36.058 4.34 34.336 3.752 33.6 3.2L28.8 9.6ZM24.8 7.248C25.594 7.546 26.926 8.196 28.8 9.6L33.6 3.2C31.22 1.414 29.222 0.364 27.606 -0.242L24.8 7.248ZM24.006 7.012C24.138 7.038 24.402 7.098 24.8 7.248L27.606 -0.242C26.9162 -0.505614 26.2049 -0.709039 25.48 -0.85L24.006 7.012ZM23.906 7L24.006 7.012L25.48 -0.85C25.2064 -0.900808 24.9309 -0.940176 24.654 -0.968L23.906 7ZM23.93 7L23.908 6.998L24.654 -0.968L24.304 -0.992L23.93 7ZM23.958 6.998L23.93 7L24.304 -0.992L24.146 -0.998L23.958 6.998ZM23.954 6.998L23.984 7L24.124 -1L24.094 -0.998L23.954 6.998ZM23.976 6.998L23.988 7L24.06 -0.998L24.048 -1L23.976 6.998ZM23.988 7H23.994L24.03 -1H24.024L23.988 7ZM23.994 7L24.018 -1H24.012L23.994 7ZM24 7H24.004V-1H24V7ZM26 22V14H18V22H26ZM14 26H22V18H14V26ZM18 26V22H10V26H18ZM22 22H14V30H22V22ZM26 34V26H18V34H26ZM26 30H22V38H26V30ZM22 26V34H30V26H22ZM34 22H26V30H34V22ZM30 22V26H38V22H30ZM26 26H34V18H26V26ZM22 14V22H30V14H22ZM22 18H26V10H22V18Z" fill="#5A14ED"/>
</g>
</svg>
