<svg width="48" height="48" viewBox="0 0 48 48" fill="none" xmlns="http://www.w3.org/2000/svg">
<path d="M7.94995 41.9999V35.9999H14.15L9.04995 19.2999C8.14995 18.7999 7.40862 18.0666 6.82595 17.0999C6.24328 16.1332 5.95128 15.0999 5.94995 13.9999C5.94995 12.3332 6.53328 10.9166 7.69995 9.74991C8.86662 8.58324 10.2833 7.99991 11.95 7.99991C13.25 7.99991 14.4086 8.37524 15.426 9.12591C16.4433 9.87658 17.1513 10.8346 17.55 11.9999H23.95V9.99991C23.95 9.43324 24.142 8.95858 24.526 8.57591C24.91 8.19324 25.3846 8.00124 25.95 7.99991C26.25 7.99991 26.542 8.06658 26.826 8.19991C27.11 8.33324 27.3513 8.53324 27.5499 8.79991L30.95 5.59991C31.25 5.29991 31.6086 5.10791 32.026 5.02391C32.4433 4.93991 32.8513 4.99858 33.25 5.19991L41.0499 8.79991C41.45 8.99991 41.7253 9.29191 41.8759 9.67591C42.0266 10.0599 42.0179 10.4346 41.8499 10.7999C41.6499 11.1999 41.3586 11.4586 40.976 11.5759C40.5933 11.6932 40.2179 11.6679 39.8499 11.4999L32.65 8.19991L27.95 12.5999V15.3999L32.65 19.6999L39.8499 16.3999C40.2166 16.2332 40.5999 16.2166 41 16.3499C41.4 16.4832 41.6833 16.7332 41.8499 17.0999C42.0499 17.4999 42.0666 17.8832 41.9 18.2499C41.7333 18.6166 41.45 18.8999 41.0499 19.0999L33.25 22.7999C32.85 22.9999 32.442 23.0579 32.026 22.9739C31.61 22.8899 31.2513 22.6986 30.95 22.3999L27.5499 19.1999C27.3499 19.3999 27.1086 19.5832 26.826 19.7499C26.5433 19.9166 26.2513 19.9999 25.95 19.9999C25.3833 19.9999 24.9086 19.8086 24.526 19.4259C24.1433 19.0432 23.9513 18.5679 23.95 17.9999V15.9999H17.55C17.45 16.2666 17.342 16.5166 17.226 16.7499C17.11 16.9832 16.9513 17.2332 16.75 17.4999L26.75 35.9999H33.95V41.9999H7.94995ZM11.95 15.9999C12.5166 15.9999 12.992 15.8079 13.376 15.4239C13.76 15.0399 13.9513 14.5652 13.95 13.9999C13.9486 13.4346 13.7573 12.9599 13.376 12.5759C12.9946 12.1919 12.5193 11.9999 11.95 11.9999C11.3806 11.9999 10.906 12.1919 10.526 12.5759C10.146 12.9599 9.95395 13.4346 9.94995 13.9999C9.94595 14.5652 10.138 15.0406 10.526 15.4259C10.914 15.8112 11.3886 16.0026 11.95 15.9999Z" fill="#5A14ED"/>
</svg>
