<svg width="48" height="48" viewBox="0 0 48 48" fill="none" xmlns="http://www.w3.org/2000/svg">
<path d="M24.0169 1.96875C21.8379 1.96875 19.6503 2.25094 18.0932 2.76938C17.3147 3.02841 16.6993 3.35025 16.3299 3.66544C15.9606 3.98044 15.8455 4.22381 15.8438 4.50544L15.8384 5.34375H3.84375V6.65625H44.1562V5.34375H32.1532L32.1562 4.49691C32.1572 4.21547 32.0466 3.97659 31.6822 3.663C31.3177 3.34941 30.7065 3.02803 29.9312 2.76909C28.3804 2.25131 26.1956 1.96875 24.0169 1.96875ZM3.58847 8.34375L2.60944 17.1562H10.1938L12.0916 9.06L11.5134 17.1562H19.1138L20.7182 9.03L20.4279 17.1562H27.5295L27.0951 9.04519L28.8463 17.1562H36.4867L35.9085 9.06L37.8062 17.1562H45.3906L44.4115 8.34375H3.58847ZM2.42194 18.8438L2.37412 19.2739C3.73331 21.2292 4.96575 22.0312 6 22.0312C7.06125 22.0312 8.32988 21.1978 9.73125 19.1287L9.79819 18.8438H2.42194ZM11.3926 18.8438L11.3626 19.2654C12.7268 21.2339 13.9627 22.0312 15 22.0312C16.0587 22.0312 17.3239 21.2016 18.7212 19.1435L18.7803 18.8438H11.3926ZM20.3678 18.8438L20.3532 19.2518C21.7209 21.2302 22.9601 22.0312 24 22.0312C25.0387 22.0312 26.2763 21.232 27.6422 19.2585L27.62 18.8438H20.3678H20.3678ZM29.2107 18.8438L29.2739 19.1362C30.6802 21.2167 31.9461 22.0466 33.0026 22.0437C34.0367 22.0409 35.2725 21.2356 36.6375 19.2653L36.6075 18.8438H29.2107ZM38.2019 18.8438L38.2688 19.1287C39.67 21.1978 40.9388 22.0312 42 22.0312C43.0342 22.0312 44.2667 21.2292 45.6259 19.2739L45.5781 18.8438H38.2018H38.2019ZM10.5 20.9353C9.12309 22.6978 7.63987 23.7188 6 23.7188C4.69012 23.7188 3.47962 23.0713 2.34375 21.9128V45.6562H32.1562V26.1562H42.8438V45.6562H45.6562V21.9128C44.5204 23.0713 43.3099 23.7188 42 23.7188C40.3603 23.7188 38.8772 22.698 37.5004 20.9359C36.1256 22.6991 34.6474 23.7268 33.0073 23.7312C31.3659 23.7357 29.8806 22.7122 28.4987 20.9368C27.1222 22.6984 25.6393 23.7188 24 23.7188C22.3601 23.7188 20.8769 22.6978 19.5 20.9353C18.1231 22.6978 16.6399 23.7188 15 23.7188C13.3601 23.7188 11.8769 22.6978 10.5 20.9353ZM5.15625 26.1562H29.3438V42.8438H5.15625V26.1562ZM6.84375 27.8438V41.1562H27.6562V27.8438H6.84375ZM33.8438 27.8438V34.506L41.1562 34.5597V27.8438H33.8438ZM8.25 29.25H20.25C10.103 30 9.34594 31.5 8.25 39.8541V29.25ZM33.8438 36.1937V37.506L41.1562 37.5597V36.247L33.8438 36.1937ZM33.8438 39.1937V45.6562H41.1562V39.247L33.8438 39.1937Z" fill="#5A14ED"/>
</svg>
