<svg width="48" height="48" viewBox="0 0 48 48" fill="none" xmlns="http://www.w3.org/2000/svg">
<path d="M35.008 15.002H15V35.008H35.006L35.008 15.002Z" fill="#5A14ED"/>
<path d="M43.01 11V7H39.01V3H35.008V7H31.008V3H27.006V7H23.006V3H19.002V7H15.002V3H11V7H7V11H3V15.002H7V19.002H3V23.004H7V27.004H3V31.006H7V35.006H3V39.008H7V43.008H11V47.01H15.002V43.01H19.002V47.01H23.004V43.01H27.004V47.01H31.006V43.01H35.006V47.01H39.008V43.01H43.008V39.01H47.01V35.008H43.01V31.008H47.01V27.006H43.01V23.006H47.01V19.002H43.01V15.002H47.01V11H43.01ZM39.01 39.008H11V11.002H39.006L39.01 39.008Z" fill="#5A14ED"/>
</svg>
