<svg width="48" height="48" viewBox="0 0 48 48" fill="none" xmlns="http://www.w3.org/2000/svg">
<path opacity="0.2" d="M33 21L13.9387 40.0613C13.6575 40.3423 13.2761 40.5002 12.8784 40.5002C12.4808 40.5002 12.0994 40.3423 11.8181 40.0613L7.93875 36.1875C7.65766 35.9062 7.49976 35.5248 7.49976 35.1272C7.49976 34.7295 7.65766 34.3482 7.93875 34.0669L27 15L33 21Z" fill="#5A14ED"/>
<path d="M46.5 28.5C46.5 28.8978 46.342 29.2794 46.0607 29.5607C45.7794 29.842 45.3978 30 45 30H42V33C42 33.3978 41.842 33.7794 41.5607 34.0607C41.2794 34.342 40.8978 34.5 40.5 34.5C40.1022 34.5 39.7207 34.342 39.4394 34.0607C39.1581 33.7794 39 33.3978 39 33V30H36C35.6022 30 35.2207 29.842 34.9394 29.5607C34.6581 29.2794 34.5 28.8978 34.5 28.5C34.5 28.1022 34.6581 27.7206 34.9394 27.4393C35.2207 27.158 35.6022 27 36 27H39V24C39 23.6022 39.1581 23.2206 39.4394 22.9393C39.7207 22.658 40.1022 22.5 40.5 22.5C40.8978 22.5 41.2794 22.658 41.5607 22.9393C41.842 23.2206 42 23.6022 42 24V27H45C45.3978 27 45.7794 27.158 46.0607 27.4393C46.342 27.7206 46.5 28.1022 46.5 28.5ZM10.5 13.5H13.5V16.5C13.5 16.8978 13.6581 17.2794 13.9394 17.5607C14.2207 17.842 14.6022 18 15 18C15.3978 18 15.7794 17.842 16.0607 17.5607C16.342 17.2794 16.5 16.8978 16.5 16.5V13.5H19.5C19.8978 13.5 20.2794 13.342 20.5607 13.0607C20.842 12.7794 21 12.3978 21 12C21 11.6022 20.842 11.2206 20.5607 10.9393C20.2794 10.658 19.8978 10.5 19.5 10.5H16.5V7.5C16.5 7.10218 16.342 6.72064 16.0607 6.43934C15.7794 6.15804 15.3978 6 15 6C14.6022 6 14.2207 6.15804 13.9394 6.43934C13.6581 6.72064 13.5 7.10218 13.5 7.5V10.5H10.5C10.1022 10.5 9.72066 10.658 9.43936 10.9393C9.15805 11.2206 9.00002 11.6022 9.00002 12C9.00002 12.3978 9.15805 12.7794 9.43936 13.0607C9.72066 13.342 10.1022 13.5 10.5 13.5ZM34.5 36H33V34.5C33 34.1022 32.842 33.7206 32.5607 33.4393C32.2794 33.158 31.8978 33 31.5 33C31.1022 33 30.7207 33.158 30.4394 33.4393C30.1581 33.7206 30 34.1022 30 34.5V36H28.5C28.1022 36 27.7207 36.158 27.4394 36.4393C27.1581 36.7206 27 37.1022 27 37.5C27 37.8978 27.1581 38.2794 27.4394 38.5607C27.7207 38.842 28.1022 39 28.5 39H30V40.5C30 40.8978 30.1581 41.2794 30.4394 41.5607C30.7207 41.842 31.1022 42 31.5 42C31.8978 42 32.2794 41.842 32.5607 41.5607C32.842 41.2794 33 40.8978 33 40.5V39H34.5C34.8978 39 35.2794 38.842 35.5607 38.5607C35.842 38.2794 36 37.8978 36 37.5C36 37.1022 35.842 36.7206 35.5607 36.4393C35.2794 36.158 34.8978 36 34.5 36ZM41.1206 15L15 41.1206C14.4375 41.6828 13.6747 41.9986 12.8794 41.9986C12.0841 41.9986 11.3213 41.6828 10.7588 41.1206L6.87752 37.2431C6.59887 36.9645 6.37783 36.6338 6.22702 36.2698C6.07622 35.9058 5.9986 35.5156 5.9986 35.1216C5.9986 34.7275 6.07622 34.3374 6.22702 33.9734C6.37783 33.6093 6.59887 33.2786 6.87752 33L33 6.87937C33.2786 6.60073 33.6094 6.37969 33.9734 6.22888C34.3374 6.07807 34.7276 6.00045 35.1216 6.00045C35.5156 6.00045 35.9058 6.07807 36.2698 6.22888C36.6338 6.37969 36.9646 6.60073 37.2431 6.87937L41.1206 10.7569C41.3993 11.0355 41.6203 11.3662 41.7711 11.7302C41.9219 12.0943 41.9996 12.4844 41.9996 12.8784C41.9996 13.2725 41.9219 13.6626 41.7711 14.0266C41.6203 14.3907 41.3993 14.7214 41.1206 15ZM30.8775 21L27 17.1206L9.00002 35.1206L12.8775 39L30.8775 21ZM39 12.8794L35.1206 9L29.1206 15L33 18.8794L39 12.8794Z" fill="#5A14ED"/>
</svg>
